<?xml version="1.0" encoding="utf-8"?>
<!-- Generator: Adobe Illustrator 26.0.3, SVG Export Plug-In . SVG Version: 6.00 Build 0)  -->
<svg version="1.1" id="Capa_1" xmlns="http://www.w3.org/2000/svg" xmlns:xlink="http://www.w3.org/1999/xlink" x="0px" y="0px"
	 viewBox="0 0 512 512" style="enable-background:new 0 0 512 512;" xml:space="preserve">
<style type="text/css">
	.st0{fill:#A8201A;}
</style>
<g>
	<g>
		<path class="st0" d="M281.1,4c-17.6,0-33,9.9-40.8,24.4c-8.2-7.3-18.9-11.7-30.7-11.7c-25.5,0-46.2,20.6-46.2,46v224.5L136.3,260
			c-25-24.7-65.7-24.6-90.6,0.2c-5.3,5.3-8.3,12.4-8.3,19.9c0,0,0,0,0,0.1c0,7.5,3,14.6,8.4,19.9L204,456.4l0,0
			c29,31.2,70.1,49.1,112.8,49.1c84.6,0,153.4-68.4,153.4-152.5v-79.9v-8.9v-147c0-25.3-20.7-46-46.2-46c-9.3,0-18,2.8-25.3,7.5
			c-0.2-25.2-20.8-45.6-46.2-45.6c-9.7,0-18.7,3-26.1,8.1C322.4,20.1,303.6,4,281.1,4z M306.4,50v29.2v149.6
			c0,5.8,4.7,10.4,10.4,10.4s10.4-4.7,10.4-10.4V79.2c0-13.8,11.4-25.1,25.3-25.1s25.3,11.2,25.3,25.1v167.4
			c0,5.8,4.7,10.4,10.4,10.4c5.8,0,10.4-4.7,10.4-10.4V117.2c0-13.8,11.4-25.1,25.3-25.1s25.3,11.2,25.3,25.1v147.1v8.9V353
			c0,72.5-59.5,131.6-132.6,131.6c-37.1,0-72.7-15.6-97.8-42.7c-0.1-0.1-0.1-0.1-0.2-0.2l-0.1-0.1L60.6,285.3
			c-1.4-1.4-2.2-3.2-2.2-5.1l0,0c0-1.9,0.8-3.8,2.1-5.1c16.8-16.8,44.2-16.8,61.1-0.2l44.3,44.4c1.8,2.1,4.4,3.5,7.3,3.7
			c0.1,0,0.2,0,0.3,0s0.2,0,0.3,0h22.9c38.4,0,69.6,31.1,69.6,69.4c0,5.8,4.7,10.4,10.4,10.4c5.8,0,10.4-4.7,10.4-10.4
			c0-49.8-40.6-90.3-90.5-90.3h-12.4V62.7c0-13.8,11.4-25.1,25.3-25.1c14,0,25.3,11.2,25.3,25.1v139.5v8.9c0,5.8,4.7,10.4,10.4,10.4
			c5.8,0,10.4-4.7,10.4-10.4v-8.9V62.7V50c0-13.8,11.4-25.1,25.3-25.1C295.1,24.9,306.4,36.2,306.4,50z"/>
	</g>
</g>
</svg>
