<?xml version="1.0" encoding="utf-8"?>
<!-- Generator: Adobe Illustrator 26.0.3, SVG Export Plug-In . SVG Version: 6.00 Build 0)  -->
<svg version="1.1" id="Capa_1" xmlns="http://www.w3.org/2000/svg" xmlns:xlink="http://www.w3.org/1999/xlink" x="0px" y="0px"
	 viewBox="0 0 512 512" style="enable-background:new 0 0 512 512;" xml:space="preserve">
<style type="text/css">
	.st0{fill:#A8201A;}
</style>
<g>
	<path class="st0" d="M479.7,446.6L435.9,128c-2.4-18-11.8-33.9-26.1-45L319,13.2c-11.5-9.3-26.9-12.5-41.1-8.7l-30.5,8.2
		c-8.9-4.1-18.9-5.2-28.5-2.4c-0.2,0-0.2,0-0.3,0.2L98.3,47.2C87.8,50.3,79.2,57.3,74,66.9c-5.2,9.6-6.4,20.6-3.2,31.1
		c6.3,21.7,29,34,50.7,27.6l12.7-3.8c4.7,14,17.9,23.1,32.1,23.1c3.2,0,6.4-0.5,9.6-1.4l13.9-4.1l56.2,44l11,116.2
		c-8.2,4.6-17.7,7.2-27.6,7.5c-7.5,0.3-14.8-0.9-21.8-3.2c-0.2,0-0.3-0.2-0.6-0.2L94.4,266.1c-11.9-4-24.7-3.1-36,2.7
		c-11.1,5.8-19.4,15.7-23.1,27.8c-6.4,21.4,3.4,44.4,23.2,54.5l207,106v40c0,6,4.7,10.7,10.7,10.7h192.7c6,0,10.7-4.7,10.7-10.7
		v-49.3C479.7,447.5,479.7,447,479.7,446.6z M283.5,24.9c7.6-2.1,16-0.3,22.1,4.7c0.2,0,0.2,0.2,0.3,0.2l91,70.1
		c9.9,7.6,16.2,18.6,18,31l39.7,288.8l2.4,17.6H273.9L68.4,332.4c-10.7-5.5-16-17.9-12.5-29.3c2-6.6,6.4-11.8,12.4-15
		c6.1-3.2,13-3.7,19.4-1.5L199.6,324c0.2,0,0.3,0.2,0.3,0.2c9.6,3.4,19.7,4.9,29.9,4.6c43.4-1.4,78.8-36.3,80.8-79.7
		c1.2-25-16.5-108.5-38.5-126l-54.8-43.5c-2.7-2.1-6.4-2.9-9.8-1.8l-92.1,27.3c-5,1.5-10.2,0.9-14.8-1.5C96,101.2,92.7,97,91.1,92
		c-1.5-5-0.9-10.2,1.5-14.8c2.4-4.6,6.6-7.9,11.8-9.5l120.3-37.1c4.3-1.2,8.7-0.8,12.7,0.9c1.4,1.4,3.1,2.4,4.9,2.9l95.7,73.1
		c9.6,7.3,16.6,17.9,19.5,29.8c1.4,5.8,7.2,9.2,13,7.8c0.2,0,0.3-0.2,0.5-0.2c5.3-1.7,8.7-7.2,7.3-12.8
		c-4.1-16.5-13.7-31.3-27.3-41.5l-81.2-62L283.5,24.9z M169.9,123.1c-6.3,1.8-12.8-1.4-15.1-7.3l53.7-16l10.8,8.5L169.9,123.1z
		 M215,131.9l20.5-6.1c1.4-0.5,2.6-1.1,3.7-2l19.8,15.9c12.7,10.1,31.6,82.3,30.4,108.2c-0.6,13-5.2,24.9-12.7,34.7l-10-105.6
		c-0.3-2.9-1.7-5.6-4-7.3L215,131.9z M287,486.6v-27.9h171.3v27.9H287z"/>
</g>
</svg>
