<?xml version="1.0" encoding="utf-8"?>
<!-- Generator: Adobe Illustrator 26.0.3, SVG Export Plug-In . SVG Version: 6.00 Build 0)  -->
<svg version="1.1" id="Capa_1" xmlns="http://www.w3.org/2000/svg" xmlns:xlink="http://www.w3.org/1999/xlink" x="0px" y="0px"
	 viewBox="0 0 512 512" style="enable-background:new 0 0 512 512;" xml:space="preserve">
<style type="text/css">
	.st0{fill:#2F6690;}
</style>
<g>
	<path class="st0" d="M419.1,119.3c-0.3-0.1-0.6-0.1-0.9-0.2V66.3c0-17.9-10.7-34.6-28.1-43.5c-16.8-8.5-37.7-8.5-54.5,0
		c-3.8,2-7.2,4.3-10.3,7c-4.7-9.7-12.8-18-23.3-23.4c-16.8-8.5-37.7-8.5-54.5,0c-7.7,4-14.1,9.5-18.8,16c-4.7-6.4-11-12-18.8-16
		c-16.8-8.5-37.7-8.5-54.5,0c-10.9,5.6-19.2,14.3-23.9,24.4c-2.6-2-5.4-3.8-8.4-5.4c-16.8-8.6-37.7-8.6-54.5,0
		c-17.3,8.8-28.1,25.5-28.1,43.5v176.2c-0.1,57.2,18.4,80.8,33.3,99.7c11.5,14.7,20.7,26.3,20.9,51v38.4c0,65.1,35.1,77.8,95.8,77.8
		h105.8c60.6,0,95.7-12.7,95.7-77.8v-35.8c0.3-27.9,9.3-38.9,23-55.7c16.2-19.9,36.5-44.7,49.7-106
		C478.5,173.8,475.4,134.4,419.1,119.3 M381.6,39.4c11.1,5.7,17.9,16,17.9,26.9v50.5l-69.9-8.6c0.1-0.6,0.4-1.2,0.4-1.8V52.5
		c3.1-5.3,8-9.9,14-13.1C355.6,33.5,370,33.5,381.6,39.4z M293.5,23c11.1,5.7,17.9,16,17.9,26.9V106l-30.2-3.7
		c-15.3,0-29.6,7.8-38.9,20.7L238,49.8c0-10.9,6.9-21.2,17.9-26.9C267.4,17.1,281.9,17.1,293.5,23L293.5,23z M201.4,23
		c11.1,5.7,18,16,18,26.9l6.3,106.4c0,11-6.9,21.2-17.9,26.9c-11.6,5.9-26,5.9-37.6,0c-11.1-5.6-17.9-15.9-17.9-27.4l-6.3-106
		c0-10.9,6.9-21.1,17.9-26.8C175.4,17.1,189.8,17.1,201.4,23z M114.7,42c5.3,2.8,9.6,6.7,12.7,11.3l5.7,94.2
		c-1.3,9.6-7.5,18.4-17.4,23.4c-11.6,5.9-26,5.9-37.6,0c-11-5.6-17.9-15.9-17.9-26.9c0-1.3-0.2-2.6-0.8-3.7l0.1-73.5
		c0.9-10.2,7.3-19.6,17.6-24.8C88.7,36.1,103.1,36.1,114.7,42z M296.2,493.4H190.5c-60.6,0-77.2-12.7-77.2-59.2v-26.6h260v26.6
		C373.3,480.7,356.8,493.4,296.2,493.4 M400.5,331c-13,15.9-24.3,30.1-26.6,58.1h-261c-1.9-26.7-13.3-41.5-24.5-55.7
		c-14.5-18.4-29.4-37.4-29.3-88.2l0.1-64.5c3.1,2.6,6.5,5,10.3,7c8.4,4.3,17.8,6.4,27.3,6.4s18.9-2.1,27.3-6.4
		c5.5-2.8,10.4-6.5,14.4-10.7c4.8,9.6,12.7,17.7,23.2,23.1c8.4,4.3,17.8,6.4,27.3,6.4c9.4,0,18.8-2.2,27.2-6.4
		c8.5-4.3,15.4-10.6,20.3-18c0.5,1,0.8,2,1.3,3c8.7,17.2,24.9,23.5,41.7,28l8.3,1.6c-26.9,25-31,65.5-31,103c0,5.1,4.2,9.3,9.3,9.3
		c5.1,0,9.3-4.2,9.3-9.3c0-39.8,4.3-79.1,35.7-97.3l53.6,9.1c5,1,9.9-2.3,10.9-7.4c0.9-5-2.3-9.9-7.4-10.9l-84.6-16.2
		c-14.2-3.8-24.1-8.2-29.2-18.3c-5.9-11.6-5.9-26,0-37.6c5.6-11.1,15.9-17.9,25.7-18l134.8,16.6c38.3,10.5,45.4,32,31.6,95.3
		C434.1,289.7,415.5,312.6,400.5,331L400.5,331z"/>
</g>
</svg>
