<?xml version="1.0" encoding="utf-8"?>
<!-- Generator: Adobe Illustrator 26.0.3, SVG Export Plug-In . SVG Version: 6.00 Build 0)  -->
<svg version="1.1" id="Icons" xmlns="http://www.w3.org/2000/svg" xmlns:xlink="http://www.w3.org/1999/xlink" x="0px" y="0px"
	 viewBox="0 0 512 512" style="enable-background:new 0 0 512 512;" xml:space="preserve">
<style type="text/css">
	.st0{fill:#2F6690;stroke:#2F6690;stroke-miterlimit:10;}
</style>
<path class="st0" d="M485.8,220.5c-17.4-9.6-38.7-9.1-55.6,1.4L373.8,257l46-129.9c7.6-22.3-4.2-46.6-26.5-54.2
	c-8.8-3-18.3-3-27.1,0l5.6-16.3c7.7-22.3-4.2-46.5-26.4-54.2h-0.1c-22.3-7.6-46.6,4.2-54.2,26.5l0,0L223.6,225L183.4,45.6
	C179.2,22.4,157,7,133.8,11.2S95.2,37.5,99.4,60.7c0,0.2,0.1,0.4,0.1,0.6l4.7,25.4c-8.3-4.2-17.7-5.5-26.8-3.9
	c-23.1,4.3-38.4,26.4-34.1,49.5L68.2,291v67.6c0,36.1,15.3,70.6,42.1,94.8c5.7,4.9,9,12.1,9.1,19.6v21.9c0,9.4,7.6,17.1,17.1,17.1
	h170.7c9.4,0,17.1-7.6,17.1-17.1v-22.3c0-7.6,3.3-14.8,9.2-19.6c13.2-10.8,24.2-24.1,32.4-39c24.3-43.7,69.8-85.9,106.5-119.8
	c7.4-6.8,14.4-13.3,20.6-19.2c6.8-6.4,10.6-15.3,10.5-24.6C503.4,237.9,496.7,226.5,485.8,220.5L485.8,220.5z M481.1,262.6
	c-6.2,5.9-13,12.3-20.4,19.1c-37.5,34.7-84.2,77.9-109.8,124c-7.2,13.1-16.8,24.7-28.3,34.1c-9.8,8.1-15.5,20.1-15.5,32.8v22.3
	H136.5V473c-0.2-12.3-5.5-24-14.8-32.2c-23.2-21-36.4-50.9-36.4-82.2v-68.3c0-0.4,0-0.9-0.1-1.3l-25-159.5
	c-2.6-13.9,6.5-27.3,20.4-29.9c6.7-1.3,13.6,0.2,19.3,4.1c5.6,3.8,9.5,9.7,10.7,16.4l1.6,8.4l23.5,125.8c0.9,4.6,5.3,7.7,10,6.8
	c4.6-0.9,7.7-5.3,6.8-10l-25.1-134.2l-11-58.7c-3-13.8,5.7-27.5,19.5-30.5s27.5,5.7,30.5,19.5c0.1,0.6,0.2,1.2,0.3,1.9L207,228.7
	c1.6,7.5,8.1,12.9,15.7,13.3h1c7.3,0,13.8-4.6,16.1-11.5l67.4-196.2c4.6-13.4,19.1-20.5,32.5-15.9c6.4,2.2,11.7,6.8,14.7,12.9
	s3.4,13.2,1.2,19.6l-22.1,64.6l-49.8,145.3c-1.5,4.5,0.9,9.3,5.3,10.8c4.5,1.5,9.3-0.9,10.8-5.3L355.1,105
	c4.6-13.4,19.1-20.5,32.5-16s20.5,19.1,16,32.5l0,0L351.2,273c-1.7,4.4,0.4,9.3,4.8,11.1c4.4,1.7,9.3-0.4,11.1-4.8
	c0.1-0.2,0.2-0.4,0.2-0.6l-2.7,4.1l74.6-46.4c11.6-7.2,26.2-7.6,38.2-1c5.5,3,8.9,8.8,8.9,15C486.4,255,484.5,259.4,481.1,262.6
	L481.1,262.6z"/>
</svg>
