<?xml version="1.0" encoding="utf-8"?>
<!-- Generator: Adobe Illustrator 26.0.3, SVG Export Plug-In . SVG Version: 6.00 Build 0)  -->
<svg version="1.1" id="Icons" xmlns="http://www.w3.org/2000/svg" xmlns:xlink="http://www.w3.org/1999/xlink" x="0px" y="0px"
	 viewBox="0 0 512 512" style="enable-background:new 0 0 512 512;" xml:space="preserve">
<style type="text/css">
	.st0{fill:#2F6690;stroke:#2F6690;stroke-width:2;stroke-miterlimit:10;}
</style>
<path class="st0" d="M512,384V238.9c0-14.1-11.5-25.6-25.6-25.6c-19.6,0-38.5-7.7-52.4-21.5C345.6,105.4,325.2,85.5,320,80.6
	l0.1-0.1c-1.8-1.7-3.7-3.3-5.8-4.7c-19.7-13.4-46.5-8.3-59.9,11.4c-11.2,17.4-8.5,40.4,6.4,54.8l36.9,42c-4.3-0.7-9.1-1.5-14.5-2.4
	L77.4,146.9c-10.1-1.6-20.3,0.9-28.6,6.8c-8.4,5.9-14,14.9-15.7,25c-3.4,20.8,10.7,40.5,31.5,43.9l120.1,24.9H38.4
	C17.8,247.6,1,263.9,0,284.4c-0.3,10.2,3.6,20.1,10.7,27.3c7.7,8,18.3,12.5,29.4,12.6h171.3c-4,5.9-6.3,12.8-6.6,19.9
	c-0.3,10.2,3.6,20.1,10.7,27.3c5.9,6.1,13.6,10.3,22,11.8c-4.3,6-6.8,13.2-7.1,20.6c-0.3,10.2,3.6,20.1,10.7,27.3
	c7.7,7.9,18.2,12.5,29.3,12.5h79.4c21.8,0,43-6.4,61.1-18.5c15.3-10.2,33.2-15.7,51.6-15.6h23.8C500.6,409.6,512,398.1,512,384z
	 M495,384c0,4.7-3.8,8.5-8.5,8.5h-23.8c-21.8-0.1-43,6.4-61.1,18.5c-15.3,10.2-33.3,15.6-51.6,15.6h-79.4c-6.4,0-12.5-2.7-17-7.3
	c-3.9-3.9-6.1-9.3-6-14.9c0.7-11.4,10-20.3,21.3-20.5c4.7,0,8.5-3.8,8.5-8.5s-3.8-8.5-8.5-8.5H245c-6.4-0.1-12.6-2.7-17.1-7.3
	c-3.9-3.9-6.1-9.3-6-14.8c0.7-11.4,10-20.3,21.3-20.5c4.7,0,8.5-3.8,8.5-8.5s-3.8-8.5-8.5-8.5H40.1c-6.4,0-12.6-2.7-17.1-7.3
	c-3.9-3.9-6.1-9.3-6-14.8c0.7-11.3,10-20.2,21.3-20.5H268c4,0,7.5-2.8,8.3-6.8c1-4.6-2-9.1-6.6-10.1l-201.9-42h-0.1
	C56,203.9,48.1,192.9,50,181.2c0.9-5.5,4.1-10.5,8.7-13.7c4.6-3.3,10.3-4.7,15.9-3.9l243.8,41c1.5,0.3,3.1,0.1,4.5-0.4
	c2.8-1.1,4.8-3.6,5.4-6.5c0.5-2.6-0.3-5.3-2.1-7.3l-52.9-60.3c-9.4-8.7-11.3-22.7-4.6-33.6c0.8-1.2,1.7-2.3,2.7-3.3
	c10-10.4,26.5-10.7,36.9-0.7L422,203.9c17.1,17,40.3,26.5,64.4,26.5c4.7,0,8.5,3.8,8.5,8.5V384H495z"/>
</svg>
