<?xml version="1.0" encoding="utf-8"?>
<!-- Generator: Adobe Illustrator 26.0.3, SVG Export Plug-In . SVG Version: 6.00 Build 0)  -->
<svg version="1.1" id="_x31_-_Mzipi" xmlns="http://www.w3.org/2000/svg" xmlns:xlink="http://www.w3.org/1999/xlink" x="0px"
	 y="0px" viewBox="0 0 512 512" style="enable-background:new 0 0 512 512;" xml:space="preserve">
<g>
	<path d="M129.6,118.4l24.3,12.7c7.6,4,16.6,1.1,20.9-6.7l0.1-0.2c16.2-29,41.2-48,68.6-52.1c3.7-0.5,7.4-0.8,11.1-0.8
		c16.3,0,32.4,5.3,45.5,15.1c14.7,11.1,24.2,27.1,26.6,45.2c6.7,49.8-34.2,82.3-67.1,108.5c-4.2,3.3-8.2,6.5-11.9,9.6
		c-27.5,22.7-40.5,52.1-39.8,89.9c0.1,3.8,1.7,7.3,4.5,9.7c2.6,2.2,5.8,3.1,9,2.6c0.4-0.1,0.9-0.1,1.3-0.1l35.2,0.2
		c5.2-1,9.1-5.8,9.7-11.8c3.8-39.1,29.2-59.7,53.8-79.7c5.3-4.3,10.7-8.7,15.8-13.2c41.8-36.9,59.1-77.5,52.8-123.9
		c-8.4-61.9-50-104-111.4-112.6c-54.3-7.5-126.5,15.7-156.5,84.7C118.5,104.1,121.8,114.4,129.6,118.4L129.6,118.4z"/>
	<path d="M237.2,419.4c-16.5,0-29.8,14.2-29.8,31.7v19.6c0,17.5,13.4,31.7,29.8,31.7c16.5,0,29.8-14.2,29.8-31.7v-19.6
		C267,433.7,253.6,419.4,237.2,419.4z"/>
</g>
</svg>
