<?xml version="1.0" encoding="utf-8"?>
<!-- Generator: Adobe Illustrator 26.0.3, SVG Export Plug-In . SVG Version: 6.00 Build 0)  -->
<svg version="1.1" id="Capa_1" xmlns="http://www.w3.org/2000/svg" xmlns:xlink="http://www.w3.org/1999/xlink" x="0px" y="0px"
	 viewBox="0 0 512 512" style="enable-background:new 0 0 512 512;" xml:space="preserve">
<g>
	<path d="M384.4,101.5c-9-6.5-21.6-4.5-28.1,4.5c-6.5,9-4.5,21.6,4.5,28.1c71.5,51.6,94.7,146.4,55.1,225.3
		c-21.4,42.8-58.3,74.6-103.6,89.7c-45.4,15.1-93.9,11.6-136.7-9.9C132.8,417.8,101,381,85.9,335.6c-15.1-45.4-11.5-93.9,9.9-136.7
		c26-52,76-88.2,133.5-96.8c0.4,0,0.7-0.2,1.1-0.3l0.8,39.8c0.1,4.4,2.8,8.3,6.9,9.9c4.1,1.6,8.8,0.6,11.8-2.6l57.3-59.8
		c4.2-4.4,4-11.3-0.3-15.4l-59.8-57.3c-3.2-3.1-7.9-3.9-11.9-2.1c-1.3,0.6-2.5,1.4-3.5,2.4c-2,2-3.1,4.8-3,7.8l0.8,37.9
		c-2-0.3-4.1-0.5-6.2-0.1C152.8,73,91.7,117.3,59.8,180.9C5.6,289,49.4,421.1,157.5,475.3c31.5,15.8,64.9,23.3,98,23.3
		c80.4,0,158-44.3,196.4-121C500.4,280.8,472,164.7,384.4,101.5z"/>
</g>
</svg>
